<svg xmlns="http://www.w3.org/2000/svg" viewBox="0 0 920 360" role="img" aria-label="Fernandes Advogados Associados">
  <defs>
    <linearGradient id="gold" x1="0" x2="1" y1="0" y2="1">
      <stop offset="0%" stop-color="#f3d37a"/>
      <stop offset="45%" stop-color="#c39535"/>
      <stop offset="100%" stop-color="#8b641e"/>
    </linearGradient>
    <filter id="softShadow" x="-20%" y="-20%" width="140%" height="140%">
      <feDropShadow dx="0" dy="10" stdDeviation="10" flood-color="#000000" flood-opacity=".22"/>
    </filter>
  </defs>

  <rect width="920" height="360" fill="none"/>

  <!-- Símbolo elegante inspirado na marca enviada -->
  <g transform="translate(460 68)" filter="url(#softShadow)">
    <path d="M0 -42 C38 -16 49 20 15 52 C-16 81 -6 116 38 132 C-18 133 -67 104 -55 52 C-48 22 -23 7 0 -42Z" fill="url(#gold)"/>
    <path d="M22 3 C2 18 -22 23 -51 18 C-33 38 -1 42 29 21 C36 16 38 8 22 3Z" fill="#f8efe0" opacity=".9"/>
    <path d="M-4 62 C-29 75 -38 99 -21 118 C-45 111 -57 83 -39 62 C-25 46 -1 41 23 44 C16 51 7 57 -4 62Z" fill="#f8efe0" opacity=".9"/>
  </g>

  <text x="460" y="220" text-anchor="middle"
        font-family="Georgia, 'Times New Roman', serif"
        font-size="86" font-weight="700" letter-spacing="5"
        fill="#F5F1E6">FERNANDES</text>

  <text x="460" y="266" text-anchor="middle"
        font-family="Georgia, 'Times New Roman', serif"
        font-size="28" font-weight="700" letter-spacing="2.5"
        fill="#D7B35B">ADVOGADOS ASSOCIADOS</text>
</svg>